<svg xmlns="http://www.w3.org/2000/svg" viewBox="0 0 288.26 93.45"><defs><style>.cls-1{font-size:34px;font-family:Raleway-SemiBold, Raleway;font-weight:600;}.cls-2{font-size:17.45px;font-family:Raleway-Medium, Raleway;font-weight:500;}.cls-3{stroke:#000;stroke-miterlimit:10;stroke-width:2.16px;}</style></defs><g id="Layer_2" data-name="Layer 2"><g id="Layer_1-2" data-name="Layer 1"><text class="cls-1" transform="translate(75.96 46.72)">Ismail Yousuf</text><text class="cls-2" transform="translate(97.99 64.47)">Films &amp; Photography</text><path d="M37,68V64.83a7.1,7.1,0,0,1-4.84,2.33H24.85q-6,0-9.15-4a7.23,7.23,0,0,1-1.53-4.39V25q-3.59,1.44-3.58,6.28L0,27.69q2.42-6.47,9.78-8.16a21.37,21.37,0,0,1,4.39-.45q6,0,9.16,4a7.34,7.34,0,0,1,1.52,4.4V55.05a3.94,3.94,0,0,0,2.6,4,4.84,4.84,0,0,0,1.53.27h8V19.08l10.68,3.59V73.26q0,8.88-9.87,15.07a38.08,38.08,0,0,1-14,5.12l-3.94-5.3q11.57-4.49,15-10.58A19.85,19.85,0,0,0,37,68Z"/><path d="M13.53,0,6.08,7.46l7.81,6.82,7.35-7.45Z"/><line class="cls-3" x1="65.11" y1="21.65" x2="65.11" y2="64.47"/></g></g></svg>